HIERARCHY
ROOT Hips
{
	OFFSET 0.000000 0.000000 0.000000
	CHANNELS 6 Xposition Yposition Zposition Xrotation Yrotation Zrotation
	JOINT LeftUpLeg_virtual
	{
		OFFSET 0.000000 0.000000 0.000000
		CHANNELS 3 Xrotation Yrotation Zrotation
		JOINT LeftUpLeg
		{
			OFFSET 11.394100 -6.187798 -0.413800
			CHANNELS 3 Xrotation Yrotation Zrotation
			JOINT LeftLeg
			{
				OFFSET 0.430247 -32.302673 3.732800
				CHANNELS 3 Xrotation Yrotation Zrotation
				JOINT LeftFoot
				{
					OFFSET -0.430247 -48.264931 -6.423300
					CHANNELS 3 Xrotation Yrotation Zrotation
					JOINT LeftToeBase
					{
						OFFSET 4.230900 -16.068199 23.438400
						CHANNELS 3 Xrotation Yrotation Zrotation
						JOINT LeftToe_End
						{
							OFFSET 4.510700 0.695400 19.974600
							CHANNELS 3 Xrotation Yrotation Zrotation
							End Site
							{
								OFFSET 0 0 0
							}
						}
					}
				}
			}
		}
	}
	JOINT RightUpLeg_virtual
	{
		OFFSET 0.000000 0.000000 0.000000
		CHANNELS 3 Xrotation Yrotation Zrotation
		JOINT RightUpLeg
		{
			OFFSET -11.333700 -6.187798 -0.413800
			CHANNELS 3 Xrotation Yrotation Zrotation
			JOINT RightLeg
			{
				OFFSET -0.430392 -32.302628 3.733000
				CHANNELS 3 Xrotation Yrotation Zrotation
				JOINT RightFoot
				{
					OFFSET 0.430392 -48.264973 -6.423500
					CHANNELS 3 Xrotation Yrotation Zrotation
					JOINT RightToeBase
					{
						OFFSET -4.230900 -16.068199 23.438400
						CHANNELS 3 Xrotation Yrotation Zrotation
						JOINT RightToe_End
						{
							OFFSET -4.510700 0.695400 19.974600
							CHANNELS 3 Xrotation Yrotation Zrotation
							End Site
							{
								OFFSET 0 0 0
							}
						}
					}
				}
			}
		}
	}
	JOINT Spine_virtual
	{
		OFFSET 0.000000 0.000000 0.000000
		CHANNELS 3 Xrotation Yrotation Zrotation
		JOINT Spine
		{
			OFFSET -0.002400 12.777504 0.315300
			CHANNELS 3 Xrotation Yrotation Zrotation
			JOINT Spine1
			{
				OFFSET -0.002067 5.816869 0.032633
				CHANNELS 3 Xrotation Yrotation Zrotation
				JOINT Spine1_split
				{
					OFFSET -0.002067 5.816869 0.032633
					CHANNELS 3 Xrotation Yrotation Zrotation
					JOINT Spine2
					{
						OFFSET -0.002067 5.816869 0.032633
						CHANNELS 3 Xrotation Yrotation Zrotation
						JOINT Neck_virtual
						{
							OFFSET 0.000000 0.000000 0.000000
							CHANNELS 3 Xrotation Yrotation Zrotation
							JOINT Neck
							{
								OFFSET -0.003700 21.199493 -0.826900
								CHANNELS 3 Xrotation Yrotation Zrotation
								JOINT Head
								{
									OFFSET 0.000000 20.442200 4.834800
									CHANNELS 3 Xrotation Yrotation Zrotation
									JOINT HeadTop_End
									{
										OFFSET 0.000000 34.668396 4.968400
										CHANNELS 3 Xrotation Yrotation Zrotation
										End Site
										{
											OFFSET 0 0 0
										}
									}
								}
							}
						}
						JOINT LeftShoulder_virtual
						{
							OFFSET 0.000000 0.000000 0.000000
							CHANNELS 3 Xrotation Yrotation Zrotation
							JOINT LeftShoulder
							{
								OFFSET 3.288150 8.794197 -1.372250
								CHANNELS 3 Xrotation Yrotation Zrotation
								JOINT LeftShoulder_split
								{
									OFFSET 3.288150 8.794197 -1.372250
									CHANNELS 3 Xrotation Yrotation Zrotation
									JOINT LeftArm
									{
										OFFSET 11.953299 -2.279007 -0.146200
										CHANNELS 3 Xrotation Yrotation Zrotation
										JOINT LeftForeArm
										{
											OFFSET 18.448900 0.000000 0.000000
											CHANNELS 3 Xrotation Yrotation Zrotation
											JOINT LeftHand
											{
												OFFSET 29.527798 0.000000 0.000000
												CHANNELS 3 Xrotation Yrotation Zrotation
												End Site
												{
													OFFSET 0 0 0
												}
											}
										}
									}
								}
							}
						}
						JOINT RightShoulder_virtual
						{
							OFFSET 0.000000 0.000000 0.000000
							CHANNELS 3 Xrotation Yrotation Zrotation
							JOINT RightShoulder
							{
								OFFSET -3.249400 8.794197 -1.372250
								CHANNELS 3 Xrotation Yrotation Zrotation
								JOINT RightShoulder_split
								{
									OFFSET -3.249400 8.794197 -1.372250
									CHANNELS 3 Xrotation Yrotation Zrotation
									JOINT RightArm
									{
										OFFSET -11.953299 -2.279007 -0.146200
										CHANNELS 3 Xrotation Yrotation Zrotation
										JOINT RightForeArm
										{
											OFFSET -18.448900 0.000000 0.000000
											CHANNELS 3 Xrotation Yrotation Zrotation
											JOINT RightHand
											{
												OFFSET -29.527802 0.000000 0.000000
												CHANNELS 3 Xrotation Yrotation Zrotation
												End Site
												{
													OFFSET 0 0 0
												}
											}
										}
									}
								}
							}
						}
					}
				}
			}
		}
	}
}
MOTION
Frames: 10
Frame Time: 0.03333333
6.534420 90.932610 -0.282413 0.000000 0.000000 0.000000 5.972855 -14.002616 -1.718794 -39.277126 2.695352 13.740520 49.526870 12.185870 -0.944001 -11.630632 4.709987 -10.561462 -2.336539 -2.308486 -3.375385 0.000000 0.000000 0.000000 5.454999 -11.111931 -1.000263 -26.757462 -5.888831 -13.536835 46.639592 -9.798212 -5.392015 -10.152880 0.912386 13.337716 -17.724945 -8.594615 13.750136 0.000000 0.000000 0.000000 6.274709 -9.059694 -0.317669 13.024874 2.287443 -2.153918 8.200959 6.421142 -2.532060 0.098176 -1.489727 1.015468 0.000000 0.000000 0.000000 -1.729665 6.034977 -0.753671 -5.563498 0.929578 0.028298 -7.957662 8.106030 6.072184 0.000000 0.000000 0.000000 -3.305702 6.039570 -0.837217 -2.283347 0.513607 -2.971802 1.275867 -1.305477 1.125584 -13.552691 1.421604 -55.195244 -12.846648 -31.993207 -5.114147 0.000000 0.000000 0.000000 -3.844523 5.289879 -0.869286 5.303123 -9.426011 9.635518 1.360965 -2.426846 -3.005768 24.938829 58.099973 23.193984 16.193624 29.399788 5.053352 0.000000 0.000000 0.000000 
6.482831 91.890503 -0.333160 0.000000 0.000000 0.000000 6.305098 -13.910804 -2.226058 -38.614720 2.325972 13.977205 46.820267 12.155225 -0.508289 -10.352826 4.313301 -10.213708 -2.432218 -2.352247 -3.676382 0.000000 0.000000 0.000000 5.576692 -11.371159 -1.589063 -26.563507 -6.174005 -12.227754 42.578727 -7.565513 -5.457704 -9.900124 2.261402 13.565968 -15.486059 -6.442195 9.950828 0.000000 0.000000 0.000000 6.476009 -8.934148 -0.676039 13.116336 2.506832 -1.835905 7.823700 6.459303 -2.408735 -0.019183 -1.708125 0.930001 0.000000 0.000000 0.000000 -2.067739 5.979405 -0.541772 -5.760742 0.961456 -0.123307 -7.577280 7.606354 6.665483 0.000000 0.000000 0.000000 -3.680172 6.004588 -0.799178 -2.254713 1.244280 -3.311570 1.444497 -1.495002 1.337168 -13.483042 1.765192 -55.257931 -12.040613 -30.798812 -4.347803 0.000000 0.000000 0.000000 -4.157409 5.302584 -0.727424 4.842796 -8.045842 9.325859 1.051007 -2.401691 -3.597847 17.111328 54.472487 29.378081 15.195783 26.468066 6.853444 0.000000 0.000000 0.000000 
6.453716 92.879868 -0.342739 0.000000 0.000000 0.000000 6.432172 -13.977990 -2.678974 -37.826486 2.119073 14.195267 44.457360 12.023361 -0.186659 -9.267174 3.994489 -9.645489 -2.359278 -2.407848 -3.913342 0.000000 0.000000 0.000000 5.539101 -11.637583 -2.140165 -25.452889 -6.080843 -10.903914 37.661161 -5.980254 -5.464037 -9.957212 2.498975 13.558144 -12.821544 -4.870248 7.395767 0.000000 0.000000 0.000000 6.445501 -8.924598 -1.041478 13.211966 2.726824 -1.461336 7.430304 6.467924 -2.327992 0.036771 -1.987569 0.885531 0.000000 0.000000 0.000000 -2.463834 5.905721 -0.398826 -5.940532 1.021562 -0.260096 -7.065558 6.964594 7.360303 0.000000 0.000000 0.000000 -4.051042 5.941361 -0.819668 -2.199916 1.950075 -3.617545 1.501681 -1.657514 1.383241 -13.387631 2.272918 -55.418225 -11.262527 -29.578332 -3.615216 0.000000 0.000000 0.000000 -4.468825 5.299530 -0.648939 4.280460 -6.785641 8.849130 0.605899 -2.291470 -3.716225 10.929722 49.753038 35.383143 15.214890 24.275645 7.040381 0.000000 0.000000 0.000000 
6.472843 93.766159 -0.303738 0.000000 0.000000 0.000000 6.299834 -14.063396 -3.058492 -36.928200 2.123677 14.279099 42.585936 11.853103 0.016559 -8.563962 3.913648 -8.953549 -2.145255 -2.435293 -4.061650 0.000000 0.000000 0.000000 5.323515 -11.708652 -2.625963 -23.828723 -5.554733 -9.674347 32.666025 -4.924469 -5.510831 -10.337044 1.909458 13.402405 -10.104544 -3.929820 6.332793 0.000000 0.000000 0.000000 6.094656 -8.984307 -1.366847 13.319458 2.870141 -1.093926 7.048999 6.442789 -2.247662 0.243641 -2.167702 0.900105 0.000000 0.000000 0.000000 -2.904828 5.814963 -0.288787 -6.024448 1.071623 -0.436862 -6.489434 6.186804 8.148432 0.000000 0.000000 0.000000 -4.415230 5.853584 -0.839669 -2.129161 2.574181 -3.817674 1.441224 -1.905201 1.408116 -13.236118 2.733080 -55.671024 -10.535151 -28.465541 -2.924585 0.000000 0.000000 0.000000 -4.774831 5.281517 -0.576344 3.668657 -5.647287 8.363841 0.081421 -2.321831 -3.457498 6.665884 44.580313 40.950881 15.815216 22.720554 6.080506 0.000000 0.000000 0.000000 
6.505939 94.534111 -0.202961 0.000000 0.000000 0.000000 5.964138 -14.003349 -3.304537 -35.897886 2.318572 14.205040 41.063534 11.659829 0.136683 -8.183463 4.049452 -8.378285 -2.094599 -2.418488 -4.044239 0.000000 0.000000 0.000000 4.982141 -11.496361 -2.961652 -22.122716 -4.732710 -8.725754 28.467511 -4.275615 -5.630140 -10.889702 0.927274 13.235084 -7.735807 -3.415305 6.433143 0.000000 0.000000 0.000000 5.477541 -9.119527 -1.636191 13.417072 2.881355 -0.800069 6.702067 6.389452 -2.137180 0.475398 -2.207920 0.947672 0.000000 0.000000 0.000000 -3.362133 5.712022 -0.175723 -5.954595 1.112145 -0.721539 -5.898047 5.281729 9.002239 0.000000 0.000000 0.000000 -4.773524 5.748878 -0.809235 -2.051776 3.072681 -3.871550 1.424624 -2.174144 1.460761 -13.116132 2.990848 -56.010758 -9.884120 -27.534787 -2.265847 0.000000 0.000000 0.000000 -5.066682 5.243920 -0.477119 3.039977 -4.651149 7.969061 -0.305718 -2.364064 -3.169684 4.226048 39.656819 45.810321 16.538830 21.802350 4.535768 0.000000 0.000000 0.000000 
6.481226 95.196259 -0.191124 0.000000 0.000000 0.000000 5.504256 -13.815232 -3.382243 -34.724077 2.630124 13.933261 39.813343 11.387630 0.222191 -7.871719 4.303517 -8.050587 -2.367808 -2.368287 -3.891894 0.000000 0.000000 0.000000 4.572711 -10.965224 -3.123049 -20.836853 -3.878714 -8.203496 25.497849 -3.807686 -5.805626 -11.160658 0.011524 13.252367 -6.099866 -3.125740 7.078446 0.000000 0.000000 0.000000 4.760305 -9.197733 -1.815177 13.446102 2.767534 -0.606982 6.385696 6.321648 -1.984639 0.527957 -2.053204 0.949862 0.000000 0.000000 0.000000 -3.801986 5.599492 -0.040448 -5.697989 1.141038 -1.151664 -5.298637 4.323252 9.863845 0.000000 0.000000 0.000000 -5.130591 5.635455 -0.708508 -1.971427 3.437470 -3.801936 1.433642 -2.473816 1.561642 -13.065161 3.030971 -56.412414 -9.352405 -26.867459 -1.673840 0.000000 0.000000 0.000000 -5.339437 5.189485 -0.333046 2.425303 -3.799478 7.638884 -0.534725 -2.677558 -2.985410 3.141466 35.351679 50.054099 16.985028 21.414019 2.852146 0.000000 0.000000 0.000000 
6.373664 95.782768 -0.099358 0.000000 0.000000 0.000000 5.032775 -13.568890 -3.285650 -33.470860 3.055862 13.506937 38.605469 11.037091 0.312314 -7.430721 4.578086 -7.934583 -2.710045 -2.322477 -3.695315 0.000000 0.000000 0.000000 4.118961 -10.285317 -3.104734 -20.126590 -3.408230 -8.156900 23.929680 -3.462084 -5.916697 -10.689176 -0.560679 13.704391 -5.569901 -2.885522 7.611213 0.000000 0.000000 0.000000 4.034763 -9.134323 -1.862623 13.380932 2.548597 -0.518691 6.097836 6.243428 -1.807015 0.446580 -1.794206 0.897385 0.000000 0.000000 0.000000 -4.210928 5.483252 0.103745 -5.253900 1.174888 -1.759152 -4.638705 3.349867 10.671615 0.000000 0.000000 0.000000 -5.493701 5.521879 -0.560701 -1.892465 3.670056 -3.681970 1.555960 -2.716015 1.640916 -13.078014 2.864247 -56.893608 -8.956210 -26.426343 -1.188337 0.000000 0.000000 0.000000 -5.585181 5.123796 -0.156976 1.849318 -3.095559 7.330892 -0.686166 -3.264305 -3.032629 3.005794 31.779825 53.597317 16.823111 21.553574 1.393943 0.000000 0.000000 0.000000 
6.184644 96.345039 0.010490 0.000000 0.000000 0.000000 4.648774 -13.350172 -3.033760 -32.160079 3.539005 13.033630 37.271792 10.664897 0.403005 -6.871384 4.861944 -7.904967 -2.734282 -2.303403 -3.587928 0.000000 0.000000 0.000000 3.675139 -9.738822 -2.917274 -19.925627 -3.497447 -8.448557 23.239971 -3.269929 -5.938758 -9.641168 -0.754110 14.359769 -5.945983 -2.585637 7.671813 0.000000 0.000000 0.000000 3.459257 -8.965860 -1.796974 13.201973 2.277379 -0.519720 5.825354 6.163918 -1.626542 0.248432 -1.591947 0.765186 0.000000 0.000000 0.000000 -4.590168 5.378381 0.243217 -4.693584 1.247533 -2.533780 -3.921414 2.397999 11.398657 0.000000 0.000000 0.000000 -5.858807 5.415856 -0.397987 -1.817003 3.814581 -3.610645 1.715637 -2.881093 1.600854 -13.060701 2.641951 -57.475659 -8.717779 -26.093872 -0.827270 0.000000 0.000000 0.000000 -5.819094 5.053290 0.025419 1.327958 -2.514058 7.041782 -0.996203 -3.962195 -3.035860 3.535159 28.753351 56.561544 15.918367 21.957900 0.395349 0.000000 0.000000 0.000000 
5.903772 96.868851 0.107235 0.000000 0.000000 0.000000 4.346701 -13.168242 -2.724450 -30.881433 4.054295 12.591473 35.718461 10.286245 0.500510 -6.271582 5.181643 -7.903856 -2.386412 -2.301084 -3.624013 0.000000 0.000000 0.000000 3.270032 -9.419152 -2.642868 -19.968384 -4.180695 -8.875892 22.877037 -3.320904 -5.831470 -8.264321 -0.710104 14.757312 -6.545546 -2.119049 7.234830 0.000000 0.000000 0.000000 3.067372 -8.734663 -1.663381 12.921942 2.008843 -0.567161 5.569569 6.092997 -1.458482 0.005002 -1.413121 0.656723 0.000000 0.000000 0.000000 -4.952899 5.296563 0.366082 -4.114325 1.382127 -3.417856 -3.164312 1.510515 12.021909 0.000000 0.000000 0.000000 -6.224362 5.331255 -0.246253 -1.743309 3.924199 -3.669265 1.816496 -2.932072 1.421496 -12.948680 2.514391 -58.148706 -8.639251 -25.727268 -0.603420 0.000000 0.000000 0.000000 -6.058082 4.995091 0.194497 0.868553 -2.003985 6.791236 -1.447511 -4.510147 -2.915309 4.554793 26.065865 59.161097 14.284364 22.328435 -0.079977 0.000000 0.000000 0.000000 
5.599232 97.362289 0.227859 0.000000 0.000000 0.000000 4.080463 -13.064927 -2.438250 -29.735973 4.587282 12.305148 34.080984 9.849935 0.639059 -5.546078 5.528966 -8.028098 -1.857177 -2.307562 -3.763884 0.000000 0.000000 0.000000 2.936771 -9.484159 -2.350056 -20.009582 -5.273426 -9.229027 22.235467 -3.652708 -5.613432 -6.970626 -0.573121 14.624417 -6.790621 -1.458087 6.471365 0.000000 0.000000 0.000000 2.811741 -8.595028 -1.527080 12.590285 1.777153 -0.620108 5.330752 6.038020 -1.307575 -0.147332 -1.332501 0.678414 0.000000 0.000000 0.000000 -5.302875 5.241804 0.472435 -3.597440 1.560504 -4.328106 -2.405838 0.700830 12.532120 0.000000 0.000000 0.000000 -6.572852 5.271089 -0.108853 -1.677204 4.065540 -3.845910 1.901532 -2.838699 1.182265 -12.661256 2.565597 -58.913523 -8.667436 -25.300120 -0.487141 0.000000 0.000000 0.000000 -6.315975 4.952180 0.343047 0.476271 -1.518399 6.594112 -2.010651 -4.761395 -2.700950 5.945222 23.604461 61.557408 12.157966 22.493065 -0.092770 0.000000 0.000000 0.000000 
